<svg xmlns="http://www.w3.org/2000/svg" viewBox="0 0 512 512"><rect width="512" height="512" rx="50" ry="50" fill="#010105"/><path d="M3.600 0L65.520-155.760L92.400-155.760L152.880 0L128.640 0L110.880-47.280L44.160-47.280L26.640 0L3.600 0ZM50.160-63.360L105.120-63.360L78.720-133.680L76.560-133.680L50.160-63.360ZM243.600 2.400Q232.560 2.400 224.040 1.440Q215.520 0.480 206.160-2.160L206.160-2.160Q195.600-5.040 188.400-9.480Q181.200-13.920 176.640-21.600L176.640-21.600Q171.840-29.760 171.840-39.840L171.840-39.840L171.840-113.520Q171.840-126.960 178.800-136.560Q185.760-146.160 198-150.480L198-150.480Q209.760-154.560 220.440-156.360Q231.120-158.160 243.600-158.160L243.600-158.160Q273.360-158.160 297.360-154.320L297.360-154.320L297.360-136.320Q288.240-138.480 271.320-140.280Q254.400-142.080 244.080-142.080L244.080-142.080Q194.880-142.080 194.880-113.760L194.880-113.760L194.880-40.320Q194.880-32.640 199.560-26.880Q204.240-21.120 212.400-18.480L212.400-18.480Q220.080-15.600 227.760-14.520Q235.440-13.440 245.040-13.440L245.040-13.440Q261.120-13.440 279.360-17.760L279.360-17.760L279.360-72.240L242.880-72.240L242.880-88.560L300.960-88.560L300.960-4.800Q269.760 2.400 243.600 2.400L243.600 2.400Z" fill="#f2fdef" transform="translate(103.72000741958618, 333.87999725341797)"/></svg>